<svg width="24" height="24" viewBox="0 0 24 24" fill="none" xmlns="http://www.w3.org/2000/svg">
<path d="M3.56934 1.1377C4.2465 0.459696 5.26721 0.306884 6.11523 0.754883V0.753906C6.87351 1.15507 7.68449 2.0333 8.35449 2.91016C9.011 3.76937 9.48201 4.55962 9.57422 4.7168C9.91081 5.31149 9.98809 5.88789 9.8584 6.35742C9.75629 6.72388 9.53401 7.02157 9.20117 7.22949L9.17188 7.24805L9.14551 7.27051C8.91547 7.46348 8.6639 7.67986 8.45508 7.86621C8.26006 8.04025 8.06695 8.21911 7.98242 8.31934L7.96484 8.33887L7.9502 8.36133C7.6742 8.77004 7.48594 9.20063 7.54004 9.67383C7.59354 10.1406 7.87056 10.5312 8.23438 10.8955V10.8965L13.1035 15.7646C13.4673 16.1289 13.8606 16.4081 14.3359 16.457C14.814 16.5061 15.2524 16.3095 15.6748 16.0225L15.7002 16.0049L15.7246 15.9844C15.8044 15.914 15.9718 15.7288 16.1396 15.5391C16.3205 15.3347 16.5365 15.0846 16.7295 14.8545L16.752 14.8281L16.7705 14.7979C16.9788 14.4647 17.2766 14.2426 17.6416 14.1416L17.6436 14.1406C18.1105 14.0096 18.6882 14.0878 19.2715 14.4189V14.4199C19.4328 14.5144 20.2267 14.9867 21.0879 15.6445C21.9658 16.3151 22.843 17.126 23.2441 17.8838L23.2578 17.9102C23.6887 18.7526 23.5319 19.7601 22.8604 20.4316L21.7861 21.5059C20.8228 22.4692 19.3287 23.5 17.3525 23.5C15.5415 23.4999 13.2145 22.6354 10.4062 19.8271L4.17285 13.5938C1.24142 10.6618 0.426903 8.25351 0.504883 6.40723C0.583378 4.55005 1.56998 3.13702 2.49414 2.21289L3.56934 1.13867V1.1377Z" fill="white" stroke=""/>
</svg>
