<svg width="28" height="28" viewBox="0 0 28 28" fill="none" xmlns="http://www.w3.org/2000/svg">
<path fill-rule="evenodd" clip-rule="evenodd" d="M23.9205 4.06902C21.2884 1.44648 17.7879 0.00147403 14.0585 0C6.3741 0 0.119972 6.22375 0.116896 13.8738C0.115871 16.3191 0.757871 18.7061 1.97782 20.8102L0 28L7.39063 26.0706C9.42688 27.1759 11.7196 27.7584 14.0529 27.7594H14.0586C21.7422 27.7594 27.9969 21.5349 28 13.8848C28.0015 10.1775 26.5527 6.69155 23.9205 4.06902ZM14.059 25.416H14.0543C11.9751 25.4152 9.93566 24.8593 8.15659 23.8086L7.73342 23.5587L3.34778 24.7036L4.51842 20.4481L4.24286 20.0118C3.08293 18.1757 2.47028 16.0535 2.47119 13.8746C2.47374 7.51622 7.67196 2.3433 14.0636 2.3433C17.1586 2.34448 20.0681 3.54559 22.2558 5.72534C24.4436 7.9051 25.6478 10.8025 25.6466 13.8839C25.6439 20.2427 20.4458 25.416 14.059 25.416ZM18.0346 15.6512C18.354 15.7669 20.0666 16.6056 20.415 16.7792C20.4829 16.813 20.5465 16.8436 20.6054 16.8719C20.8484 16.9888 21.0125 17.0677 21.0826 17.1841C21.1697 17.3287 21.1697 18.0228 20.8794 18.8326C20.5891 19.6425 19.1974 20.3816 18.5281 20.4811C17.9279 20.5704 17.1685 20.6076 16.334 20.3438C15.8281 20.184 15.1792 19.9707 14.3481 19.6135C11.0828 18.2103 8.87595 15.0607 8.45851 14.4649C8.42922 14.4231 8.40874 14.3939 8.39732 14.3787L8.39442 14.3749C8.20974 14.1296 6.97493 12.4897 6.97493 10.7925C6.97493 9.1955 7.76312 8.35849 8.12591 7.97322C8.15077 7.94682 8.17362 7.92255 8.19409 7.9003C8.51342 7.55326 8.8908 7.46648 9.12303 7.46648C9.35523 7.46648 9.5877 7.46864 9.79066 7.47869C9.81566 7.47993 9.84166 7.47977 9.86854 7.47961C10.0716 7.47838 10.3247 7.47684 10.5744 8.07382C10.6708 8.30429 10.812 8.64636 10.9608 9.00687C11.2602 9.73211 11.5903 10.532 11.6485 10.6479C11.7356 10.8214 11.7936 11.0239 11.6775 11.2552C11.6601 11.2898 11.6441 11.3224 11.6288 11.3535C11.5415 11.5311 11.4773 11.6614 11.3292 11.8336C11.2711 11.9011 11.2111 11.9739 11.1511 12.0466C11.0311 12.192 10.9111 12.3375 10.8067 12.441C10.6323 12.6138 10.4507 12.8015 10.6539 13.1485C10.8571 13.4956 11.5563 14.631 12.5918 15.5502C13.7049 16.5383 14.6724 16.9559 15.1628 17.1677C15.2586 17.209 15.3362 17.2425 15.3931 17.2709C15.7415 17.4444 15.9447 17.4155 16.1478 17.1841C16.3511 16.9527 17.0187 16.1718 17.2509 15.8248C17.4832 15.4777 17.7153 15.5355 18.0346 15.6512Z" fill="white"/>
</svg>
